<svg xmlns="http://www.w3.org/2000/svg" viewBox="0 0 278 281.08"><defs><style>.cls-1{fill:#c51315;}</style></defs><g id="Слой_2" data-name="Слой 2"><g id="Слой_1-2" data-name="Слой 1"><path class="cls-1" d="M153.52,112.15a21.8,21.8,0,0,1,5.53-.37,19.49,19.49,0,0,1,5.09.89,15.61,15.61,0,0,1,7.5,5.36c.3.39.57.79.83,1.2l.36.6c.15.26.27.48.45.75-.59.36-7.54,4.81-8.59,5.49l-.26-.46a12.88,12.88,0,0,0-1.41-1.9,6.83,6.83,0,0,0-2.07-1.63,7.66,7.66,0,0,0-3.17-.69,6.94,6.94,0,0,0-1.64.13,4.81,4.81,0,0,0-2.93,7.45,8.63,8.63,0,0,0,3.21,2.48c.42.22.83.43,1.26.63,3.14,1.49,6.43,2.65,9.48,4.39a23.2,23.2,0,0,1,5.53,4.16,13.55,13.55,0,0,1,3.28,6,17.59,17.59,0,0,1-.37,10,12.62,12.62,0,0,1-1.11,2.35,14.9,14.9,0,0,1-7.08,5.89,27.14,27.14,0,0,1-13.75,1.35,22.7,22.7,0,0,1-9.35-3.77,18.65,18.65,0,0,1-3.5-3.2,18.87,18.87,0,0,1-1.43-1.9c-.22-.34-.44-.68-.64-1s-.27-.48-.43-.73l-.16-.26,9.1-5.25c.09.14.24.43.32.55l.48.78a12.42,12.42,0,0,0,1.32,1.67,11.71,11.71,0,0,0,10.86,3.48,6.85,6.85,0,0,0,4.37-2.51,5,5,0,0,0-.14-5.79,9,9,0,0,0-3.17-2.39c-1-.54-2.11-1-3.19-1.51l-1.62-.69c-1.82-.77-3.66-1.56-5.4-2.49a46,46,0,0,1-4.06-2.69,14,14,0,0,1-5.14-8,24.44,24.44,0,0,1-.39-4,15.94,15.94,0,0,1,.35-3.37,14.05,14.05,0,0,1,1.08-3.14,12.67,12.67,0,0,1,.81-1.44c.15-.23.31-.46.48-.68h0a14.73,14.73,0,0,1,7-5A17.52,17.52,0,0,1,153.52,112.15Z"/><path class="cls-1" d="M131.46,156.14c-.13.46-.28.91-.45,1.36a13.62,13.62,0,0,1-2.92,4.69,15.85,15.85,0,0,1-9.32,4.19A20.63,20.63,0,0,1,107.89,165a16.84,16.84,0,0,1-4.8-3.15,15.52,15.52,0,0,1-1.93-2.2,22.17,22.17,0,0,1-1.71-2.85c0-.07-.17-.34-.17-.34l9-5.43s.55,1,.58,1a17.08,17.08,0,0,0,1.38,2.09,6.83,6.83,0,0,0,2.57,2.08,7.33,7.33,0,0,0,3,.49,5.32,5.32,0,0,0,4.07-1.83,6.18,6.18,0,0,0,1.24-3.35,7,7,0,0,0,0-.79c0-12.65,0-38.19,0-38.36h11.07v34C132.25,149.64,132.34,153,131.46,156.14Z"/><path d="M275.5,179h-89V97h89a2.5,2.5,0,0,0,0-5h-89V2.5a2.5,2.5,0,0,0-5,0V92H96.47V5.58a2.5,2.5,0,1,0-5,0V92H2.5a2.5,2.5,0,0,0,0,5h89v82H2.5a2.5,2.5,0,0,0,0,5h89v94.59a2.5,2.5,0,0,0,5,0V184h85.06V275.5a2.5,2.5,0,0,0,5,0V184h89a2.5,2.5,0,0,0,0-5Zm-179,0V97h85.06v82Z"/><path d="M139,75a25.2,25.2,0,1,1,25.2-25.19A25.22,25.22,0,0,1,139,75Zm0-45.39a20.2,20.2,0,1,0,20.2,20.2A20.22,20.22,0,0,0,139,29.59Z"/><path d="M228.91,254.56a25.2,25.2,0,1,1,25.2-25.19A25.22,25.22,0,0,1,228.91,254.56Zm0-45.39a20.2,20.2,0,1,0,20.2,20.2A20.22,20.22,0,0,0,228.91,209.17Z"/><path d="M49.05,254.56a25.2,25.2,0,1,1,25.19-25.19A25.23,25.23,0,0,1,49.05,254.56Zm0-45.39a20.2,20.2,0,1,0,20.19,20.2A20.22,20.22,0,0,0,49.05,209.17Z"/><path d="M52.77,139.49,73.28,119a2.5,2.5,0,0,0-3.54-3.53L49.23,136,28.72,115.44A2.5,2.5,0,1,0,25.18,119l20.51,20.52L25.18,160a2.5,2.5,0,1,0,3.54,3.53L49.23,143l20.51,20.51A2.5,2.5,0,0,0,73.28,160Z"/><path d="M232.45,49.83,253,29.32a2.5,2.5,0,0,0-3.54-3.54L228.91,46.29,208.4,25.78a2.5,2.5,0,1,0-3.54,3.54l20.52,20.51L204.86,70.34a2.52,2.52,0,0,0,0,3.54,2.51,2.51,0,0,0,3.54,0l20.51-20.52,20.51,20.52A2.5,2.5,0,0,0,253,70.34Z"/><path d="M142.54,229.61l20.51-20.51a2.5,2.5,0,1,0-3.54-3.54L139,226.07l-20.51-20.51A2.5,2.5,0,1,0,115,209.1l20.52,20.51L115,250.12a2.5,2.5,0,0,0,3.54,3.54L139,233.14l20.51,20.52a2.5,2.5,0,0,0,3.54-3.54Z"/></g></g></svg>