<svg xmlns="http://www.w3.org/2000/svg" viewBox="0 0 420 505.74"><defs><style>.cls-1{fill:#fff;fill-rule:evenodd;}</style></defs><g id="Слой_2" data-name="Слой 2"><g id="Слой_1-2" data-name="Слой 1"><path class="cls-1" d="M20,0A20,20,0,0,0,0,20V481.15c11.5-.44,22.41,4.67,32.71,9.68l.14.07C43.23,496,54,501.25,65.42,501.21c10.32,0,20.13-4.22,29.87-8.4,11.53-5,22.95-9.86,35-7.69,6.83,1.23,13.19,4.72,19.48,8.17,8.83,4.84,17.52,9.61,27.15,7.93,5.91-1,11-4.41,16.07-7.81,4.54-3,9.08-6.07,14.24-7.45,11-3,22.14,2,32.77,6.73,1.66.74,3.3,1.47,4.93,2.17,29.88,12.95,64.71,14.92,95,2.79,5.46-2.18,10.76-4.8,16.06-7.43,8.26-4.09,16.52-8.17,25.36-10.57a70.93,70.93,0,0,1,38.71.78V20A20,20,0,0,0,400,0Z"/></g></g></svg>