<svg xmlns="http://www.w3.org/2000/svg" viewBox="0 0 420 535.49"><defs><style>.cls-1{fill:#fff;fill-rule:evenodd;}</style></defs><g id="Слой_2" data-name="Слой 2"><g id="Слой_1-2" data-name="Слой 1"><path class="cls-1" d="M20,0A20,20,0,0,0,0,20V520a20.23,20.23,0,0,0,.24,3.13,43.5,43.5,0,0,1,9.4-2.66c16.42-2.69,33.21,1.8,49.06,6.48l1.6.47c15.36,4.55,31.22,9.25,47.27,7.8,13.94-1.21,27-6.94,40-12.6,16.79-7.33,33.35-14.57,51.23-11.81,10.35,1.58,19.51,6.44,28.61,11.27,2.35,1.25,4.69,2.49,7.05,3.68,11.51,5.77,25.1,10.36,37.64,6.87,7.9-2.19,14.15-7.23,20.41-12.28,6-4.84,12-9.69,19.5-12,11.41-3.6,23.48-.75,35.57,2.1s24,5.66,35.38,2.18c10.75-3.29,18.58-11.66,24.9-20.22q1.78-2.36,3.52-4.76c2.76-3.77,5.53-7.55,8.62-11.05V20A20,20,0,0,0,400,0Z"/></g></g></svg>