<svg xmlns="http://www.w3.org/2000/svg" viewBox="0 0 450 118"><defs><style>.cls-1{fill:#6fd8f8;}</style></defs><g id="Слой_2" data-name="Слой 2"><g id="Слой_1-2" data-name="Слой 1"><path class="cls-1" d="M0,27.65H3.09c24.26,0,27.68-21.26,45.52-21.26C70.78,6.39,73.39,20,92.43,20c18.4,0,17.87-13.44,30.79-13.44,11.21,0,19.76,9,33.26,9,14.87,0,18.29-10.27,27.78-10.27,18.49,0,27.1,29.45,48.23,29.45S262.72,16.3,277.13,16.3C297.45,16.3,295.2,34,314.3,34,342.64,34,345,0,378.09,0,405,0,426.53,27.65,445.25,27.65H450V118H0Z"/></g></g></svg>

