<svg xmlns="http://www.w3.org/2000/svg" viewBox="0 0 478.7 478.7"><defs><style>.cls-1{fill:#f3931b;}.cls-2{fill:#fff;}.cls-3{fill:#c51315;}</style></defs><g id="Слой_2" data-name="Слой 2"><g id="Слой_1-2" data-name="Слой 1"><rect class="cls-1" width="478.7" height="478.7" rx="96.38"/><polygon class="cls-2" points="169.96 115.56 124.83 115.56 124.83 69.26 116.87 69.26 116.87 115.56 71.74 115.56 71.74 123.52 116.87 123.52 116.87 167.48 124.83 167.48 124.83 123.52 169.96 123.52 169.96 115.56"/><polygon class="cls-2" points="161.17 322.99 155.25 317.07 121.68 350.65 87.23 316.2 81.31 322.12 115.76 356.57 82.18 390.15 88.1 396.06 121.68 362.49 154.38 395.19 160.3 389.27 127.6 356.57 161.17 322.99"/><rect class="cls-2" x="353.61" y="69.43" width="7.96" height="98.22" transform="translate(239.04 476.13) rotate(-90)"/><rect x="353.61" y="284.35" width="7.96" height="98.22" transform="translate(24.13 691.04) rotate(-90)"/><rect x="353.61" y="331.17" width="7.96" height="98.22" transform="translate(-22.7 737.87) rotate(-90)"/><polygon points="478.7 237.26 247.04 237.26 247.04 0 238.92 0 238.92 237.26 0 237.26 0 245.38 238.92 245.38 238.92 478.7 247.04 478.7 247.04 245.38 478.7 245.38 478.7 237.26"/><path class="cls-3" d="M282.7,172.85a56.28,56.28,0,0,1,14-.95,49.87,49.87,0,0,1,12.89,2.25,39.69,39.69,0,0,1,19,13.61,35.65,35.65,0,0,1,2.1,3c.31.5.59,1,.9,1.51.4.66.7,1.2,1.14,1.91-1.49.9-19.09,12.18-21.75,13.9l-.67-1.16a33,33,0,0,0-3.57-4.83,17.42,17.42,0,0,0-5.23-4.12,19.37,19.37,0,0,0-8.05-1.75,18,18,0,0,0-4.15.32,12.18,12.18,0,0,0-7.41,18.89c2,2.83,5.06,4.68,8.12,6.28,1.05.55,2.11,1.08,3.18,1.58,8,3.79,16.31,6.74,24,11.13a58.37,58.37,0,0,1,14,10.55,34.25,34.25,0,0,1,8.31,15.31,44.56,44.56,0,0,1-.94,25.24,32.63,32.63,0,0,1-2.8,5.95c-4.09,6.83-10.69,11.84-18,14.91-8.73,3.69-18.84,4.75-28.27,4.16a65.11,65.11,0,0,1-6.54-.75,57.54,57.54,0,0,1-23.71-9.53,48.78,48.78,0,0,1-8.87-8.11,51.23,51.23,0,0,1-3.62-4.81c-.56-.86-1.1-1.73-1.62-2.62-.39-.69-.69-1.21-1.1-1.86-.16-.26-.39-.66-.39-.66L266.82,269c.22.34.61,1.07.81,1.39.47.75.74,1.22,1.22,2a30.32,30.32,0,0,0,3.33,4.24,29.75,29.75,0,0,0,27.51,8.83c4.28-.85,8.56-2.8,11.07-6.36a12.82,12.82,0,0,0-.34-14.69c-2-2.7-5-4.48-8-6-2.64-1.37-5.35-2.63-8.07-3.83-1.37-.6-2.74-1.18-4.11-1.76-4.62-2-9.27-3.94-13.69-6.3-3.58-1.92-10.25-6.78-10.29-6.81-6.24-5.18-11.6-12.26-13-20.36a60.58,60.58,0,0,1-1-10.23,40.06,40.06,0,0,1,.9-8.53,35.5,35.5,0,0,1,2.73-8,32.94,32.94,0,0,1,2.06-3.66c.38-.58.79-1.16,1.21-1.72h0A37.32,37.32,0,0,1,277,174.39,45.25,45.25,0,0,1,282.7,172.85Z"/><path class="cls-3" d="M226.8,284.31c-.32,1.16-.69,2.3-1.12,3.44a34.3,34.3,0,0,1-7.41,11.87c-6.16,6.28-14.9,9.49-23.62,10.64a52.36,52.36,0,0,1-27.55-3.48,42.49,42.49,0,0,1-12.17-8,39.73,39.73,0,0,1-4.89-5.56A56.38,56.38,0,0,1,145.7,286c-.09-.16-.42-.84-.42-.84l22.86-13.77c.05.1,1.39,2.4,1.45,2.51a44.58,44.58,0,0,0,3.5,5.3,17.31,17.31,0,0,0,6.52,5.25,18.12,18.12,0,0,0,7.62,1.25,13.4,13.4,0,0,0,10.3-4.63c2.05-2.44,2.77-5.38,3.15-8.48a17,17,0,0,0,.13-2c0-32,0-96.76,0-97.19h28v86.19C228.8,267.84,229,276.3,226.8,284.31Z"/></g></g></svg>